<svg width="44" height="44" viewBox="0 0 44 44" fill="none" xmlns="http://www.w3.org/2000/svg">
<path d="M28.7962 39.0372C28.4524 39.3809 27.9861 39.574 27.5 39.574C27.0139 39.574 26.5476 39.3809 26.2038 39.0372L23.2962 36.1295C22.9525 35.7857 22.7594 35.3195 22.7594 34.8333C22.7594 34.3472 22.9525 33.881 23.2962 33.5372L33.5372 23.2962C33.881 22.9525 34.3472 22.7594 34.8333 22.7594C35.3195 22.7594 35.7857 22.9525 36.1295 23.2962L39.0372 26.2038C39.3809 26.5476 39.574 27.0139 39.574 27.5C39.574 27.9861 39.3809 28.4524 39.0372 28.7962L28.7962 39.0372Z" stroke="#007FFF" stroke-width="3.66667" stroke-linecap="round" stroke-linejoin="round"/>
<path d="M33 23.8333L30.4791 11.231C30.4106 10.8881 30.2454 10.572 30.0031 10.3199C29.7607 10.0678 29.4514 9.89033 29.1115 9.8083L5.9308 3.71797C5.62542 3.64414 5.30619 3.65002 5.00373 3.73506C4.70128 3.8201 4.42576 3.98144 4.2036 4.2036C3.98144 4.42576 3.8201 4.70128 3.73506 5.00373C3.65002 5.30619 3.64414 5.62542 3.71797 5.9308L9.8083 29.1115C9.89033 29.4514 10.0678 29.7607 10.3199 30.0031C10.572 30.2454 10.8881 30.4106 11.231 30.4791L23.8333 33M4.21664 4.21664L17.5743 17.5743" stroke="#007FFF" stroke-width="3.66667" stroke-linecap="round" stroke-linejoin="round"/>
<path d="M20.1667 23.8333C22.1917 23.8333 23.8333 22.1917 23.8333 20.1667C23.8333 18.1416 22.1917 16.5 20.1667 16.5C18.1416 16.5 16.5 18.1416 16.5 20.1667C16.5 22.1917 18.1416 23.8333 20.1667 23.8333Z" stroke="#007FFF" stroke-width="3.66667" stroke-linecap="round" stroke-linejoin="round"/>
</svg>
