<svg width="36" height="36" viewBox="0 0 36 36" fill="none" xmlns="http://www.w3.org/2000/svg">
<path d="M16.5 30H6C5.20435 30 4.44129 29.6839 3.87868 29.1213C3.31607 28.5587 3 27.7957 3 27V7.50001C3 6.70436 3.31607 5.9413 3.87868 5.37869C4.44129 4.81608 5.20435 4.50001 6 4.50001H11.85C12.3517 4.49509 12.8467 4.61609 13.2895 4.85194C13.7324 5.08778 14.1091 5.43094 14.385 5.85001L15.6 7.65001C15.8732 8.0648 16.245 8.40529 16.6823 8.64091C17.1195 8.87654 17.6083 8.99993 18.105 9.00001H30C30.7956 9.00001 31.5587 9.31608 32.1213 9.87869C32.6839 10.4413 33 11.2044 33 12V14.25" stroke="black" stroke-width="3" stroke-linecap="round" stroke-linejoin="round"/>
<path d="M20.85 26.175C19.05 24.375 19.14 21.975 20.55 20.58C20.8885 20.2408 21.2907 19.9716 21.7334 19.788C22.1761 19.6043 22.6507 19.5098 23.13 19.5098C23.6093 19.5098 24.0838 19.6043 24.5266 19.788C24.9693 19.9716 25.3714 20.2408 25.71 20.58L26.25 21.09L26.76 20.58C27.0978 20.2375 27.5001 19.9653 27.9437 19.779C28.3872 19.5928 28.8633 19.4962 29.3444 19.4948C29.8254 19.4934 30.302 19.5872 30.7467 19.7709C31.1913 19.9546 31.5952 20.2245 31.935 20.565C33.36 21.99 33.435 24.36 31.635 26.175L26.25 31.5L20.85 26.175Z" stroke="black" stroke-width="3" stroke-linecap="round" stroke-linejoin="round"/>
</svg>
