<svg width="36" height="36" viewBox="0 0 36 36" fill="none" xmlns="http://www.w3.org/2000/svg">
<path d="M13.7295 8.112C15.63 4.704 16.5795 3 18 3C19.4205 3 20.37 4.704 22.2705 8.112L22.7625 8.994C23.3025 9.963 23.5725 10.4475 23.9925 10.767C24.4125 11.0865 24.9375 11.205 25.9875 11.442L26.9415 11.658C30.6315 12.4935 32.475 12.9105 32.9145 14.322C33.3525 15.732 32.0955 17.2035 29.58 20.145L28.929 20.9055C28.215 21.741 27.8565 22.1595 27.696 22.6755C27.5355 23.193 27.5895 23.751 27.6975 24.8655L27.7965 25.881C28.176 29.8065 28.3665 31.7685 27.2175 32.64C26.0685 33.5115 24.3405 32.7165 20.8875 31.1265L19.992 30.7155C19.011 30.2625 18.5205 30.0375 18 30.0375C17.4795 30.0375 16.989 30.2625 16.008 30.7155L15.114 31.1265C11.6595 32.7165 9.93149 33.5115 8.78399 32.6415C7.63349 31.7685 7.82399 29.8065 8.20349 25.881L8.30249 24.867C8.41049 23.751 8.46449 23.193 8.30249 22.677C8.14349 22.1595 7.78499 21.741 7.07099 20.907L6.41999 20.145C3.90449 17.205 2.64749 15.7335 3.08549 14.322C3.52349 12.9105 5.36999 12.492 9.05999 11.658L10.014 11.442C11.0625 11.205 11.586 11.0865 12.0075 10.767C12.429 10.4475 12.6975 9.963 13.2375 8.994L13.7295 8.112Z" stroke="black" stroke-width="3"/>
</svg>
