<svg width="650" height="503" viewBox="0 0 650 503" fill="none" xmlns="http://www.w3.org/2000/svg">
<path d="M175.784 383.109C181.04 393.624 185.18 383.478 188.272 381.936C190.133 381.004 196.239 394.004 201.681 386.143C207.795 377.31 209.022 383.315 211.007 386.096C214.899 391.542 219.28 384.799 221.751 382.779" stroke="black" stroke-width="3" stroke-linecap="round" stroke-linejoin="round"/>
<path d="M428.25 383.109C433.505 393.624 437.646 383.478 440.738 381.936C442.598 381.004 448.705 394.004 454.146 386.143C460.26 377.31 461.488 383.315 463.473 386.096C467.365 391.542 471.746 384.799 474.216 382.779" stroke="black" stroke-width="3" stroke-linecap="round" stroke-linejoin="round"/>
<path d="M360.71 412.828C337.034 425.471 313.254 431.189 289.322 425.625" stroke="black" stroke-width="3" stroke-linecap="round" stroke-linejoin="round"/>
<path fill-rule="evenodd" clip-rule="evenodd" d="M361.355 312.764V322.576C361.355 325.283 359.173 327.481 356.445 327.481C336.552 318.034 316.03 319.128 295.13 327.481C292.402 327.481 290.22 325.283 290.22 322.576V312.764C290.22 310.057 292.402 307.86 295.13 307.86C316.03 302.009 336.468 302.125 356.445 307.86C359.173 307.86 361.355 310.057 361.355 312.764Z" fill="white" stroke="black" stroke-width="3" stroke-linecap="round" stroke-linejoin="round"/>
<path d="M192.43 359.697C247.582 381.832 297.831 368.119 304.665 329.068C311.499 290.017 272.33 240.415 217.178 218.28C162.026 196.145 111.777 209.858 104.943 248.909C98.1092 287.96 137.278 337.562 192.43 359.697Z" fill="white" stroke="black" stroke-width="3" stroke-linecap="round" stroke-linejoin="round"/>
<path d="M432.827 218.296C487.979 196.161 538.228 209.874 545.062 248.925C551.896 287.976 512.727 337.577 457.575 359.712C402.423 381.847 352.174 368.134 345.34 329.083C338.506 290.032 377.675 240.431 432.827 218.296Z" fill="white" stroke="black" stroke-width="3" stroke-linecap="round" stroke-linejoin="round"/>
<path fill-rule="evenodd" clip-rule="evenodd" d="M212.674 233.385C241.906 245.117 266.179 265.396 279.55 287.206C287.694 300.493 291.835 314.279 289.649 326.769C287.126 341.187 276.134 350.532 261 354.58C243.448 359.253 220.742 357.098 196.941 347.546C167.71 335.814 143.438 315.529 130.028 293.703C121.884 280.417 117.782 266.646 119.966 254.162C122.489 239.743 133.444 230.378 148.617 226.345C166.131 221.657 188.873 223.833 212.674 233.385Z" fill="black"/>
<path fill-rule="evenodd" clip-rule="evenodd" d="M453.068 344.596C429.267 354.149 406.524 356.324 389.01 351.636C373.837 347.604 362.883 338.238 360.36 323.819C358.175 311.336 362.277 297.564 370.422 284.278C383.831 262.452 408.103 242.167 437.335 230.435C461.136 220.883 483.841 218.728 501.393 223.401C516.528 227.449 527.519 236.794 530.042 251.212C532.228 263.702 528.087 277.488 519.943 290.775C506.572 312.585 482.299 332.864 453.068 344.596Z" fill="black"/>
</svg>
