<svg width="44" height="44" viewBox="0 0 44 44" fill="none" xmlns="http://www.w3.org/2000/svg">
<path d="M16.5 5.5H7.33333C6.32081 5.5 5.5 6.32081 5.5 7.33333V16.5C5.5 17.5125 6.32081 18.3333 7.33333 18.3333H16.5C17.5125 18.3333 18.3333 17.5125 18.3333 16.5V7.33333C18.3333 6.32081 17.5125 5.5 16.5 5.5Z" stroke="#007FFF" stroke-width="3.66667" stroke-linecap="round" stroke-linejoin="round"/>
<path d="M16.5 25.6666H7.33333C6.32081 25.6666 5.5 26.4874 5.5 27.5V36.6666C5.5 37.6791 6.32081 38.5 7.33333 38.5H16.5C17.5125 38.5 18.3333 37.6791 18.3333 36.6666V27.5C18.3333 26.4874 17.5125 25.6666 16.5 25.6666Z" stroke="#007FFF" stroke-width="3.66667" stroke-linecap="round" stroke-linejoin="round"/>
<path d="M25.6666 7.33337H38.5M25.6666 16.5H38.5M25.6666 27.5H38.5M25.6666 36.6667H38.5" stroke="#007FFF" stroke-width="3.66667" stroke-linecap="round" stroke-linejoin="round"/>
</svg>
