<svg width="654" height="507" viewBox="0 0 654 507" fill="none" xmlns="http://www.w3.org/2000/svg">
<path fill-rule="evenodd" clip-rule="evenodd" d="M113.531 388.482C77.7293 385.114 39.9004 361.642 18.2612 326.085C-11.0806 277.874 0.378051 225.584 43.8313 209.386C58.0905 204.069 72.6215 203.447 86.7447 206.718C87.238 199.986 87.8517 193.115 88.5897 186.108L336.721 121.396L573.389 186.108C573.463 192.948 573.443 199.672 573.338 206.279C579.11 205.246 584.863 204.714 590.526 204.714C600.186 204.714 609.583 206.263 618.342 209.53C661.795 225.727 660.105 276.619 630.764 324.827C606.759 364.275 571.629 389.783 535.851 388.878C496.061 467.966 426.393 504.827 335.14 504.827C240.08 504.827 155.64 473.765 113.531 388.482Z" fill="#FFC290" stroke="black" stroke-width="3" stroke-miterlimit="1.5" stroke-linecap="round" stroke-linejoin="round"/>
<path d="M597.756 184.347L496.977 263.652L506.161 275.322L606.939 196.018L597.756 184.347Z" fill="white" stroke="black" stroke-width="3" stroke-linecap="round" stroke-linejoin="round"/>
<path fill-rule="evenodd" clip-rule="evenodd" d="M108.515 103.852C80.0535 155.786 60.3656 212.821 68.0401 250.901C136.964 240.089 167.227 223.138 190.704 184.33C228.47 261.834 585.356 276.334 587.439 244.223C590.078 203.436 579.841 150.647 551.942 103.852C474.009 -26.8695 185.669 -36.9385 108.515 103.852Z" fill="#FF86CD" stroke="black" stroke-width="3" stroke-miterlimit="1.5" stroke-linecap="round" stroke-linejoin="round"/>
<path d="M184.658 84.2362C154.78 101.287 141.306 135.796 137.441 158.332" stroke="black" stroke-width="3" stroke-linecap="round" stroke-linejoin="round"/>
<path d="M466.603 84.2362C496.481 101.287 509.955 135.796 513.82 158.332" stroke="black" stroke-width="3" stroke-linecap="round" stroke-linejoin="round"/>
<path fill-rule="evenodd" clip-rule="evenodd" d="M103.44 82.173L137.078 91.5456L160.253 59.6395L157.868 97.3394L191.507 106.712L156.395 120.637L154.011 158.334L134.695 129.243L99.5806 143.17L122.756 111.264L103.44 82.173Z" fill="#FFF99D" stroke="black" stroke-width="3" stroke-linecap="round" stroke-linejoin="round"/>
<path fill-rule="evenodd" clip-rule="evenodd" d="M550.562 82.173L516.923 91.5456L493.748 59.6395L496.133 97.3394L462.495 106.712L497.607 120.637L499.991 158.334L519.307 129.243L554.421 143.17L531.246 111.264L550.562 82.173Z" fill="#FFF99D" stroke="black" stroke-width="3" stroke-linecap="round" stroke-linejoin="round"/>
<path d="M49.875 287.489L83.4468 315.991" stroke="black" stroke-width="3" stroke-linecap="round" stroke-linejoin="round"/>
<path d="M603.088 287.803L569.516 316.306" stroke="black" stroke-width="3" stroke-linecap="round" stroke-linejoin="round"/>
</svg>
