<svg width="44" height="44" viewBox="0 0 44 44" fill="none" xmlns="http://www.w3.org/2000/svg">
<path d="M36.6668 5.50005V12.8334M40.3334 9.16672H33.0001M7.33343 31.1667V34.8334M9.16676 33.0001H5.50009M18.2179 28.4167C18.0542 27.7823 17.7235 27.2032 17.2602 26.7399C16.7969 26.2766 16.2179 25.9459 15.5834 25.7822L4.33593 22.8819C4.14403 22.8274 3.97514 22.7118 3.85488 22.5527C3.73462 22.3936 3.66956 22.1995 3.66956 22C3.66956 21.8006 3.73462 21.6065 3.85488 21.4474C3.97514 21.2883 4.14403 21.1727 4.33593 21.1182L15.5834 18.2161C16.2177 18.0525 16.7965 17.7221 17.2598 17.2591C17.7231 16.7961 18.054 16.2175 18.2179 15.5834L21.1183 4.33588C21.1722 4.14323 21.2876 3.97351 21.447 3.85261C21.6064 3.7317 21.801 3.66626 22.001 3.66626C22.2011 3.66626 22.3956 3.7317 22.555 3.85261C22.7144 3.97351 22.8298 4.14323 22.8838 4.33588L25.7823 15.5834C25.9459 16.2178 26.2766 16.7969 26.74 17.2602C27.2033 17.7235 27.7823 18.0542 28.4168 18.2179L39.6643 21.1164C39.8577 21.1697 40.0282 21.2851 40.1498 21.4447C40.2714 21.6043 40.3372 21.7994 40.3372 22C40.3372 22.2007 40.2714 22.3958 40.1498 22.5554C40.0282 22.715 39.8577 22.8304 39.6643 22.8837L28.4168 25.7822C27.7823 25.9459 27.2033 26.2766 26.74 26.7399C26.2766 27.2032 25.9459 27.7823 25.7823 28.4167L22.8819 39.6642C22.828 39.8569 22.7126 40.0266 22.5532 40.1475C22.3938 40.2684 22.1992 40.3338 21.9992 40.3338C21.7991 40.3338 21.6046 40.2684 21.4452 40.1475C21.2858 40.0266 21.1703 39.8569 21.1164 39.6642L18.2179 28.4167Z" stroke="#007FFF" stroke-width="3.66667" stroke-linecap="round" stroke-linejoin="round"/>
</svg>
